/* XPM */
static char *_48b173e778a47708e98b173814c3996[] = {
/* columns rows colors chars-per-pixel */
"64 64 124 2 ",
"   c #3957A7",
".  c #3958A7",
"X  c #3A58A7",
"o  c #3959A8",
"O  c #3A59A8",
"+  c #3A5AA8",
"@  c #3A5BA9",
"#  c #3A5CA9",
"$  c #3B5CA9",
"%  c #3A5DAA",
"&  c #3B5EAA",
"*  c #3B5FAB",
"=  c #3B60AB",
"-  c #3B61AC",
";  c #3C62AD",
":  c #3C63AD",
">  c #3C65AE",
",  c #3C67AF",
"<  c #3D67AF",
"1  c #3D68AF",
"2  c #3E68B0",
"3  c #3E69B0",
"4  c #3E6AB1",
"5  c #3F6BB1",
"6  c #3F6BB2",
"7  c #406BB2",
"8  c #416DB2",
"9  c #406DB3",
"0  c #416DB3",
"q  c #426FB3",
"w  c #416FB4",
"e  c #426FB4",
"r  c #4371B4",
"t  c #4371B5",
"y  c #4471B5",
"u  c #4473B6",
"i  c #4575B7",
"p  c #4576B7",
"a  c #4676B7",
"s  c #4577B8",
"d  c #4677B8",
"f  c #4678B8",
"g  c #4679B8",
"h  c #4679B9",
"j  c #477BBA",
"k  c #487BBA",
"l  c #487DBB",
"z  c #487EBC",
"x  c #497FBD",
"c  c #4980BD",
"v  c #4982BE",
"b  c #4A82BE",
"n  c #4A83BE",
"m  c #4A85C0",
"M  c #4B85C0",
"N  c #4B87C1",
"B  c #4C88C1",
"V  c #4C8AC3",
"C  c #4D8AC3",
"Z  c #4C8BC3",
"A  c #4E8DC4",
"S  c #4E8EC4",
"D  c #4F90C6",
"F  c #4F91C6",
"G  c #5093C7",
"H  c #5193C7",
"J  c #5094C7",
"K  c #5194C7",
"L  c #5194C8",
"P  c #5296C9",
"I  c #5297C9",
"U  c #5399CA",
"Y  c #5399CB",
"T  c #539ACB",
"R  c #539CCC",
"E  c #539DCC",
"W  c #549CCC",
"Q  c #549DCC",
"!  c #549FCE",
"~  c #54A0CE",
"^  c #55A0CE",
"/  c #56A2CF",
"(  c #56A3CF",
")  c #56A3D0",
"_  c #57A6D1",
"`  c #58A6D1",
"'  c #58A6D2",
"]  c #58A7D2",
"[  c #59A9D3",
"{  c #59AAD3",
"}  c #59AAD4",
"|  c #5AAAD4",
" . c #5BADD5",
".. c #5DB1D7",
"X. c #5FB4D9",
"o. c #5FB5D9",
"O. c #61B8DB",
"+. c #61B9DB",
"@. c #61BADC",
"#. c #62BDDD",
"$. c #62BDDE",
"%. c #63BDDE",
"&. c #63BEDE",
"*. c #64C1DF",
"=. c #5FCAE7",
"-. c #64C2E0",
";. c #64C3E0",
":. c #65C5E1",
">. c #65C6E1",
",. c #66C6E1",
"<. c #66C9E2",
"1. c #66CAE3",
"2. c #67CBE3",
"3. c #62CBE5",
"4. c #63CBE5",
"5. c #60CAE6",
"6. c #60CBE6",
"7. c #61CBE6",
"8. c #60CAE7",
"9. c #62CBE6",
"0. c #64CBE4",
"q. c #64CBE5",
"w. c #66CCE4",
"e. c None",
/* pixels */
"e.e.e.e.e.e.e.e.e.e.e.e.e.e.e.e.e.e.e.e.e.e.e.e.e.e.e.e.e.e.e.e.e.e.e.e.e.e.e.e.e.e.e.e.e.e.e.e.e.e.e.e.e.e.e.e.e.e.e.e.e.e.e.e.",
"e.e.e.e.e.e.e.e.e.e.e.e.e.e.e.e.e.e.e.e.e.e.e.e.e.e.e.e.e.e.e.e.e.e.e.e.e.e.e.e.e.e.e.e.e.e.e.e.e.e.e.e.e.e.e.e.e.e.e.e.e.e.e.e.",
"e.e.e.e.e.e.e.e.e.e.e.e.e.e.e.e.e.e.e.e.e.e.e.e.e.e.e.e.e.e.e.e.e.e.e.e.e.e.e.e.e.e.e.e.e.e.e.e.e.e.e.e.e.e.e.e.e.e.e.e.e.e.e.e.",
"e.e.e.e.e.e.e.e.e.e.e.e.e.e.e.e.e.e.e.e.e.e.e.e.e.e.e.e.e.e.e.e.e.e.e.e.e.e.e.e.e.e.e.e.e.e.e.e.e.e.e.e.e.e.e.e.e.e.e.e.e.e.e.e.",
"e.e.e.e.e.e.e.e.e.e.e.e.e.e.e.e.e.e.e.e.e.e.e.e.e.e.e.e.e.e.e.e.e.e.e.e.e.e.e.e.e.e.e.e.e.e.e.e.e.e.e.e.e.e.e.e.e.e.e.e.e.e.e.e.",
"e.e.e.e.e.e.e.e.e.e.e.e.e.e.e.e.e.e.e.e.e.e.e.e.e.e.e.e.e.e.e.e.e.e.e.e.e.e.e.e.e.e.e.e.e.e.e.e.e.e.e.e.e.e.e.e.e.e.e.e.e.e.e.e.",
"e.e.e.e.e.e.e.e.e.e.e.e.e.e.e.e.e.e.e.e.e.e.e.e.e.e.e.e.e.e.e.e.e.e.e.e.e.e.e.e.e.e.e.e.e.e.e.e.e.e.e.e.e.e.e.e.e.e.e.e.e.e.e.e.",
"e.e.e.e.e.e.e.e.e.e.e.e.e.e.e.e.e.e.e.e.e.e.e.e.e.e.e.e.e.e.e.e.e.e.e.e.e.e.e.e.e.e.e.e.e.e.e.e.e.e.e.e.e.e.e.e.e.e.e.e.e.e.e.e.",
"e.e.e.e.e.e.e.e.e.e.e.e.e.e.e.e.e.e.e.e.e.e.e.e.e.e.e.e.e.e.e.e.e.e.e.e.e.e.e.e.e.e.e.e.e.e.e.e.e.e.e.e.e.e.e.e.e.e.e.e.e.e.e.e.",
"e.e.e.e.e.e.e.e.e.e.e.e.e.e.e.e.e.e.e.e.e.e.e.e.e.e.e.e.e.e.e.e.e.e.e.e.e.e.e.e.e.e.e.e.e.e.e.e.e.e.e.e.e.e.e.e.e.e.e.e.e.e.e.e.",
"e.e.e.e.e.e.e.e.e.e.e.e.e.e.e.e.e.e.e.e.e.e.e.e.e.e.e.e.e.e.e.e.e.e.e.e.e.e.e.e.e.e.e.e.e.e.e.e.e.e.e.e.e.e.e.e.e.e.e.e.e.e.e.e.",
"e.e.e.e.e.e.e.e.e.e.e.e.e.e.e.e.e.e.e.e.e.e.e.e.e.e.e.e.e.e.e.e.e.e.e.e.e.e.e.e.e.e.e.e.e.e.e.e.e.e.e.e.e.e.e.e.e.e.e.e.e.e.e.e.",
"e.e.e.e.e.e.e.e.e.e.e.e.e.e.e.e.e.e.e.e.e.e.e.e.e.e.e.e.e.e.e.e.e.e.e.e.e.e.e.e.e.e.e.e.e.e.e.e.e.e.e.e.e.e.e.e.e.e.e.e.e.e.e.e.",
"e.e.e.e.e.e.e.e.e.e.e.e.e.e.e.e.e.e.e.e.e.e.e.e.e.e.e.e.e.e.e.e.e.e.e.e.e.e.e.e.e.e.e.e.e.e.e.e.e.e.e.e.e.e.e.e.e.e.e.e.e.e.e.e.",
"e.e.e.e.e.e.e.e.e.e.e.e.e.e.e.e.e.e.e.e.e.e.e.e.e.e.e.e.e.e.e.e.e.e.e.e.e.e.e.e.e.e.e.e.e.e.e.e.e.e.e.e.e.e.e.e.e.e.e.e.e.e.e.e.",
"e.e.e.e.e.e.e.e.e.e.e.e.e.e.e.e.e.e.e.e.e.e.e.e.e.e.j k x x n M M Z S D G P Y e.e.e.e.e.e.e.e.e.e.e.e.e.w.w.q.q.q.6.6.6.=.=.=.e.",
"e.e.e.e.e.e.e.e.e.e.e.e.e.e.e.e.e.e.e.e.e.e.e.e.e.i k k l x n M B B S D G U Y T e.e.e.e.e.e.e.e.e.e.e.1.w.w.0.w.9.9.6.6.=.=.=.e.",
"e.e.e.e.e.e.e.e.e.e.e.e.e.e.e.e.e.e.e.e.e.e.e.e.e.i f k l x n M M B S D G K U W ( e.e.e.e.e.e.e.e.e.,.1.w.w.0.w.9.9.6.=.=.=.e.e.",
"e.e.e.e.e.e.e.e.e.e.e.e.e.e.e.e.e.e.e.e.e.e.e.e.e.i j k l l n M B Z S D G K Y W ! ( e.e.e.e.e.e.e.-.,.1.w.w.0.w.9.9.9.9.=.=.e.e.",
"e.e.e.e.e.e.e.e.e.e.e.e.e.e.e.e.e.e.e.e.e.e.e.e.e.e.e.k l n n n M Z S D K P Y W ! ( e.e.e.e.e.e.e.*.,.1.w.0.0.0.9.9.9.=.=.e.e.e.",
"e.e.e.e.e.e.e.e.e.e.e.e.e.e.e.e.e.e.e.e.e.e.e.e.e.e.e.e.e.e.e.e.e.e.e.e.K P Y W ! ( ] e.e.e.e.e.#.*.:.1.0.0.0.0.6.9.6.6.e.e.e.e.",
"e.e.e.e.e.e.e.e.e.e.e.e.e.e.e.e.e.e.e.e.e.e.e.e.e.e.e.e.e.e.e.e.e.e.e.e.G P Y W ! ( ' e.e.e.e.O.#.*.,.1.0.0.0.0.0.0.6.6.e.e.e.e.",
"e.e.e.e.e.e.e.e.e.e.e.e.e.e.e.e.e.e.e.e.e.e.e.e.e.e.e.e.e.e.e.e.e.e.e.e.G P Y W ! ( ' { e.e.e.O.#.*.,.1.w.w.0.0.6.w.6.e.e.e.e.e.",
"e.e.e.e.e.e.e.e.e.e.e.e.e.e.e.e.e.5 5 5 8 w r u i i j k j n v M M Z S F G P Y T ( ( ' {  .e.o.O.#.*.,.1.w.w.0.0.9.9.e.e.e.e.e.e.",
"e.e.e.e.e.e.e.e.e.e.e.e.e.e.e.> > 5 5 5 8 w u u i a d k l x n M B Z S D G P W W ! ( ' {  ...o.O.#.*.,.2.w.w.9.w.6.6.e.e.e.e.e.e.",
"e.e.e.e.e.e.e.e.e.e.e.e.e.e.e.> > 5 5 5 8 w w u i i k k j n n M M Z Z D G P P W ! ( ' {  ...o.O.#.*.,.q.w.0.q.w.0.e.e.e.e.e.e.e.",
"e.e.e.e.e.e.e.e.e.e.e.e.e.e.e.> , , , 5 7 w w i i i i k l x n M N Z S D G P W W ! ( ] |  ...o.O.#.*.,.q.w.w.0.0.e.e.e.e.e.e.e.e.",
"e.e.e.e.e.e.e.e.e.e.e.e.e.e.e.e., , 5 5 w w r i i i f k j n n M N Z S D G P P W ( ( ] |  ...o.O.#.*.,.2.w.w.0.0.e.e.e.e.e.e.e.e.",
"e.e.e.e.e.e.e.e.e.e.e.e.e.e.e.e.e.e.e.e.e.e.e.e.e.e.e.e.e.e.e.e.e.e.e.e.e.e.e.e.e.e.' |  ...X.O.#.*.,.1.w.w.0.e.e.e.e.e.e.e.e.e.",
"e.e.e.e.e.e.e.e.e.e.e.e.e.e.e.e.e.e.e.e.e.e.e.e.e.e.e.e.e.e.e.e.e.e.e.e.e.e.e.e.e.e.' |  ...X.O.#.*.,.1.w.w.e.e.e.e.e.e.e.e.e.e.",
"e.e.e.e.e.e.e.e.e.e.e.e.e.e.e.e.e.e.e.e.e.e.e.e.e.e.e.e.e.e.e.e.e.e.e.e.e.e.e.e.e.e.] {  ...X.O.#.*.,.1.w.w.e.e.e.e.e.e.e.e.e.e.",
"e.e.e.e.e.e.e.e.e.e.e.e.e.e.e.e.e.e.e.e.e.e.e.e.e.e.e.e.e.e.e.e.e.e.e.e.e.e.e.e.e.( ]  . ...X.O.#.*.,.1.0.e.e.e.e.e.e.e.e.e.e.e.",
"e.e.e.e.e.e.e.$ $ - $ = - - - > > 5 5 e.e.e.e.u i i i k z x n M Z Z A D L P Y W ! ^ ' |  ...o.+.&.*.*.2.e.e.e.e.e.e.e.e.e.e.e.e.",
"e.e.e.e.e.e.$ $ $ $ $ = - - > > > > 5 e.e.e.u u i f f k j n n M N Z A D L P Y W ! ( ' |  ...o.+.#.*.1.2.e.e.e.e.e.e.e.e.e.e.e.e.",
"e.e.e.e.e.e.$ $ % % = - - ; > > , 5 5 e.e.e.u u i f f l x x n M N C A D L P Y W ( ( ' |  ...o.+.*.*.*.2.e.e.e.e.e.e.e.e.e.e.e.e.",
"e.e.e.e.e.e.e.$ % % $ - - ; - > , > e.e.e.e.e.u i f f j l x n M N C A D L P Y W ( ^ ' |  ...o.+.#.*.*.w.w.e.e.e.e.e.e.e.e.e.e.e.",
"e.e.e.e.e.e.e.e.e.e.e.e.e.e.e.e.e.e.e.e.e.e.e.e.e.e.e.e.e.e.e.e.e.e.e.e.e.e.e.! W ( ' |  ...o.O.&.*.,.1.1.0.e.e.e.e.e.e.e.e.e.e.",
"e.e.e.e.e.e.e.e.e.e.e.e.e.e.e.e.e.e.e.e.e.e.e.e.e.e.e.e.e.e.e.e.e.e.e.e.e.e.e.W ( ( ' {  ...o.@.#.,.,.1.w.0.e.e.e.e.e.e.e.e.e.e.",
"e.e.e.e.e.e.e.e.e.e.e.e.e.e.e.e.e.e.e.e.e.e.e.e.e.e.e.e.e.e.e.e.e.e.e.e.e.e.e.! ! ( ' {  .....@.#.-.,.1.w.w.0.e.e.e.e.e.e.e.e.e.",
"e.e.e.e.e.e.e.e.e.e.e.e.e.e.e.e.e.e.e.e.e.e.e.e.e.e.e.e.e.e.e.e.e.e.e.e.e.e.e.T ( ( '  . ...O.O.&.-.,.q.w.w.0.0.e.e.e.e.e.e.e.e.",
"e.  . X $   $ $ $ % * $ - > ; 7 , 5 5 7 7 w e i p p j j z z n m B C A G G P T W ^ ` ' |  ...o.@.#.-.,.1.w.w.q.6.e.e.e.e.e.e.e.e.",
"    . .   $   $ $ % * - - - > - , , , 7 w w w i p p d j z v n m B C A G G P T T ^ ^ { |  ...o.O.#.-.,.1.w.w.q.q.0.e.e.e.e.e.e.e.",
"    . .   $ $ $ $ % * * - - , , , 7 5 7 7 e e i i d j j z n n m B S A G K P W W ( ' ' |  ...o.O.#.-.,.1.w.w.q.q.6.e.e.e.e.e.e.e.",
"    . .       $ $ % * - - - - , , , 5 7 w e e i i i j j z z n m B B A A K P T W ! ^ ' |  .e.o.O.%.-.,.2.w.w.6.w.0.6.e.e.e.e.e.e.",
"e.e.e.e.e.e.e.e.e.e.e.e.e.e.e.e.e.e.e.e.e.e.e.e.e.e.e.e.e.e.e.e.e.e.S G G P T W ! ^ ' | e.e.e.O.%.-.,.q.w.w.0.9.6.0.6.e.e.e.e.e.",
"e.e.e.e.e.e.e.e.e.e.e.e.e.e.e.e.e.e.e.e.e.e.e.e.e.e.e.e.e.e.e.e.e.e.e.e.G P T W ( ` ' { e.e.e.@.%.-.,.q.w.w.0.w.0.8.q.e.e.e.e.e.",
"e.e.e.e.e.e.e.e.e.e.e.e.e.e.e.e.e.e.e.e.e.e.e.e.e.e.e.e.e.e.e.e.e.e.e.e.K P T W ! ` ' e.e.e.e.e.&.-.,.2.w.w.0.0.6.w.6.6.e.e.e.e.",
"e.e.e.e.e.e.e.e.e.e.e.e.e.e.e.e.e.e.e.e.e.e.e.e.e.e.e.e.e.e.e.e.e.e.e.G K P T W ! ^ e.e.e.e.e.e.e.*.,.2.w.0.0.0.6.8.6.6.8.e.e.e.",
"e.e.e.e.e.e.e.e.e.e.e.e.e.e.e.e.e.e.e.e.e.w u u u d j k z z n M M S S S K P T W ^ ^ e.e.e.e.e.e.e.-.,.2.w.w.0.0.9.9.6.6.6.e.e.e.",
"e.e.e.e.e.e.e.e.e.e.e.e.e.e.e.e.e.e.e.e.w 8 e u i d d k z n n M B B S G K P T W ( e.e.e.e.e.e.e.e.e.,.2.w.w.0.0.6.9.6.=.8.=.e.e.",
"e.e.e.e.e.e.e.e.e.e.e.e.e.e.e.e.e.e.e.e.8 e u u i d j k z z n M B S S G K T T T e.e.e.e.e.e.e.e.e.e.e.2.w.w.0.0.6.9.9.=.=.=.=.e.",
"e.e.e.e.e.e.e.e.e.e.e.e.e.e.e.e.e.e.e.e.w 8 u u i d d k l v n M B B S G K K T ! e.e.e.e.e.e.e.e.e.e.e.2.w.0.0.0.0.9.9.=.=.=.=.e.",
"e.e.e.e.e.e.e.e.e.e.e.e.e.e.e.e.e.e.e.e.e.w r u i d j j l x n M B S S D P P T e.e.e.e.e.e.e.e.e.e.e.e.e.0.w.0.0.6.6.6.8.=.=.=.e.",
"e.e.e.e.e.e.e.e.e.e.e.e.e.e.e.e.e.e.e.e.e.e.e.e.e.e.e.e.e.e.e.e.e.e.e.e.e.e.e.e.e.e.e.e.e.e.e.e.e.e.e.e.e.e.e.e.e.e.e.e.e.e.e.e.",
"e.e.e.e.e.e.e.e.e.e.e.e.e.e.e.e.e.e.e.e.e.e.e.e.e.e.e.e.e.e.e.e.e.e.e.e.e.e.e.e.e.e.e.e.e.e.e.e.e.e.e.e.e.e.e.e.e.e.e.e.e.e.e.e.",
"e.e.e.e.e.e.e.e.e.e.e.e.e.e.e.e.e.e.e.e.e.e.e.e.e.e.e.e.e.e.e.e.e.e.e.e.e.e.e.e.e.e.e.e.e.e.e.e.e.e.e.e.e.e.e.e.e.e.e.e.e.e.e.e.",
"e.e.e.e.e.e.e.e.e.e.e.e.e.e.e.e.e.e.e.e.e.e.e.e.e.e.e.e.e.e.e.e.e.e.e.e.e.e.e.e.e.e.e.e.e.e.e.e.e.e.e.e.e.e.e.e.e.e.e.e.e.e.e.e.",
"e.e.e.e.e.e.e.e.e.e.e.e.e.e.e.e.e.e.e.e.e.e.e.e.e.e.e.e.e.e.e.e.e.e.e.e.e.e.e.e.e.e.e.e.e.e.e.e.e.e.e.e.e.e.e.e.e.e.e.e.e.e.e.e.",
"e.e.e.e.e.e.e.e.e.e.e.e.e.e.e.e.e.e.e.e.e.e.e.e.e.e.e.e.e.e.e.e.e.e.e.e.e.e.e.e.e.e.e.e.e.e.e.e.e.e.e.e.e.e.e.e.e.e.e.e.e.e.e.e.",
"e.e.e.e.e.e.e.e.e.e.e.e.e.e.e.e.e.e.e.e.e.e.e.e.e.e.e.e.e.e.e.e.e.e.e.e.e.e.e.e.e.e.e.e.e.e.e.e.e.e.e.e.e.e.e.e.e.e.e.e.e.e.e.e.",
"e.e.e.e.e.e.e.e.e.e.e.e.e.e.e.e.e.e.e.e.e.e.e.e.e.e.e.e.e.e.e.e.e.e.e.e.e.e.e.e.e.e.e.e.e.e.e.e.e.e.e.e.e.e.e.e.e.e.e.e.e.e.e.e.",
"e.e.e.e.e.e.e.e.e.e.e.e.e.e.e.e.e.e.e.e.e.e.e.e.e.e.e.e.e.e.e.e.e.e.e.e.e.e.e.e.e.e.e.e.e.e.e.e.e.e.e.e.e.e.e.e.e.e.e.e.e.e.e.e.",
"e.e.e.e.e.e.e.e.e.e.e.e.e.e.e.e.e.e.e.e.e.e.e.e.e.e.e.e.e.e.e.e.e.e.e.e.e.e.e.e.e.e.e.e.e.e.e.e.e.e.e.e.e.e.e.e.e.e.e.e.e.e.e.e.",
"e.e.e.e.e.e.e.e.e.e.e.e.e.e.e.e.e.e.e.e.e.e.e.e.e.e.e.e.e.e.e.e.e.e.e.e.e.e.e.e.e.e.e.e.e.e.e.e.e.e.e.e.e.e.e.e.e.e.e.e.e.e.e.e."
};
