/* XPM */
static char *_a144e357b2b4b64d638170ec17971e3[] = {
/* columns rows colors chars-per-pixel */
"32 32 60 1 ",
"  c #3957A7",
". c #3A58A7",
"X c #3A59A8",
"o c #3A5BA9",
"O c #3B5CAA",
"+ c #3B5FAB",
"@ c #3B61AC",
"# c #3C64AE",
"$ c #3D67AF",
"% c #3F6AB1",
"& c #416EB3",
"* c #4372B5",
"= c #4575B7",
"- c #4576B7",
"; c #4676B7",
": c #4779B9",
"> c #477AB9",
", c #487EBC",
"< c #497EBC",
"1 c #497FBC",
"2 c #4983BF",
"3 c #4A83BF",
"4 c #4A84BF",
"5 c #4B89C2",
"6 c #4C89C2",
"7 c #4F8EC5",
"8 c #4E8FC5",
"9 c #4F8FC5",
"0 c #5194C7",
"q c #5195C8",
"w c #539ACB",
"e c #539BCB",
"r c #549BCB",
"t c #549BCC",
"y c #55A0CE",
"u c #55A1CE",
"i c #55A1CF",
"p c #58A7D2",
"a c #58A8D2",
"s c #59A8D3",
"d c #5CAED6",
"f c #5CAFD6",
"g c #5FB6DA",
"h c #60B6DA",
"j c #60B8DB",
"k c #63BEDE",
"l c #63BFDE",
"z c #64C0DE",
"x c #5FCAE7",
"c c #65C7E2",
"v c #66C7E2",
"b c #65C8E2",
"n c #66C8E2",
"m c #66C9E3",
"M c #62CBE5",
"N c #61CBE6",
"B c #64CBE4",
"V c #64CBE5",
"C c #66CCE4",
"Z c None",
/* pixels */
"ZZZZZZZZZZZZZZZZZZZZZZZZZZZZZZZZ",
"ZZZZZZZZZZZZZZZZZZZZZZZZZZZZZZZZ",
"ZZZZZZZZZZZZZZZZZZZZZZZZZZZZZZZZ",
"ZZZZZZZZZZZZZZZZZZZZZZZZZZZZZZZZ",
"ZZZZZZZZZZZZZZZZZZZZZZZZZZZZZZZZ",
"ZZZZZZZZZZZZZZZZZZZZZZZZZZZZZZZZ",
"ZZZZZZZZZZZZZZZZZZZZZZZZZZZZZZZZ",
"ZZZZZZZZZZZZZ:<2590ZZZZZZZCBNNxZ",
"ZZZZZZZZZZZZ=:<2590eZZZZZBCBBNNZ",
"ZZZZZZZZZZZZZ:<259qeuZZZkvCBNNNZ",
"ZZZZZZZZZZZZZZZZZZqetsZZkvBBNNZZ",
"ZZZZZZZZZZZZZZZZZZqeusZhkvCBNZZZ",
"ZZZZZZZZ$%&*=:<259qeusfhkvCBNZZZ",
"ZZZZZZZZ$%&*=:<2590eusfhkvCBZZZZ",
"ZZZZZZZZZZZZZZZZZZZZZsfhkvCZZZZZ",
"ZZZZZZZZZZZZZZZZZZZZZsfhkvCZZZZZ",
"ZZZo++@@$ZZ*=><469qwusfhlvZZZZZZ",
"ZZZoo+@$$ZZ*=><469qwusfhlvZZZZZZ",
"ZZZZZZZZZZZZZZZZZZZtusfhlvCZZZZZ",
"ZZZZZZZZZZZZZZZZZZZtusfhlvCBZZZZ",
"..XXo+@$$&&&=>2469qrusfhkvCBZZZZ",
"..XX++@@$&&*=><369qrusfgzmCBNZZZ",
"ZZZZZZZZZZZZZZZZZ9qrisZjkBCBNNZZ",
"ZZZZZZZZZZZZZZZZZZqtiZZZkvCBNNZZ",
"ZZZZZZZZZZ&*=><369qtuZZZZmCBBNxZ",
"ZZZZZZZZZZ&*;>2469qtZZZZZmCBNNxx",
"ZZZZZZZZZZZZZZZZZZZZZZZZZZZZZZZZ",
"ZZZZZZZZZZZZZZZZZZZZZZZZZZZZZZZZ",
"ZZZZZZZZZZZZZZZZZZZZZZZZZZZZZZZZ",
"ZZZZZZZZZZZZZZZZZZZZZZZZZZZZZZZZ",
"ZZZZZZZZZZZZZZZZZZZZZZZZZZZZZZZZ",
"ZZZZZZZZZZZZZZZZZZZZZZZZZZZZZZZZ"
};
