/* XPM */
static char *_df5f219ac464312c42ed9e0be7b4347[] = {
/* columns rows colors chars-per-pixel */
"16 16 36 1 ",
"  c #3957A7",
". c #3A5AA8",
"X c #3A5BA9",
"o c #3B5DAA",
"O c #3B62AD",
"+ c #3D67AF",
"@ c #3D69B0",
"# c #3E68B0",
"$ c #426FB4",
"% c #4577B8",
"& c #4677B8",
"* c #4678B8",
"= c #4980BD",
"- c #4981BD",
"; c #4D8BC3",
": c #4E8DC4",
"> c #5197C9",
", c #5297C9",
"< c #5399CB",
"1 c #56A3CF",
"2 c #56A3D0",
"3 c #57A3D0",
"4 c #57A4D0",
"5 c #57A5D1",
"6 c #5DB1D7",
"7 c #5DB2D7",
"8 c #64C2DF",
"9 c #5FCAE7",
"0 c #64C2E0",
"q c #64C4E0",
"w c #65C5E1",
"e c #62CBE5",
"r c #62CBE6",
"t c #65CCE4",
"y c #66CCE4",
"u c None",
/* pixels */
"uuuuuuuuuuuuuuuu",
"uuuuuuuuuuuuuuuu",
"uuuuuuuuuuuuuuuu",
"uuuuuuuuuuuuuuuu",
"uuuuuu*=;>uuqtr9",
"uuuuuuuuu>1u8tru",
"uuuu#$&=;>368tuu",
"uuuuuuuuuu568tuu",
"uooO+u*=;>360uuu",
"uuuuuuuuu<360tuu",
" .oO#$*=;>568yuu",
"uuuuuuuu:>3u0yru",
"uuuuu$&=;<uuqtr9",
"uuuuuuuuuuuuuuuu",
"uuuuuuuuuuuuuuuu",
"uuuuuuuuuuuuuuuu"
};
